<svg width="16" height="18" viewBox="0 0 16 18" fill="none" xmlns="http://www.w3.org/2000/svg">
<path d="M8.13587 18C5.4148 17.982 3.32292 17.0964 1.91679 15.3684C0.667503 13.8294 0.0218853 11.6892 0 9.0072V8.9946C0.0218853 6.3108 0.667503 4.1724 1.91861 2.6334C3.32292 0.9036 5.41662 0.018 8.13587 0H8.14681C10.2332 0.0144 11.9786 0.5436 13.3336 1.5732C14.6085 2.5416 15.5058 3.9204 16 5.6736L14.4498 6.1002C13.6109 3.1302 11.488 1.6128 8.13952 1.5894C5.9291 1.6056 4.2567 2.2914 3.16973 3.627C2.15388 4.878 1.62863 6.6852 1.60857 9C1.62863 11.3148 2.15388 13.122 3.17155 14.373C4.25852 15.7104 5.93092 16.3962 8.14134 16.4106C10.1347 16.3962 11.4533 15.9372 12.5494 14.877C13.8005 13.6674 13.7786 12.1824 13.3774 11.2788C13.1421 10.746 12.7136 10.3032 12.1354 9.9666C11.9895 10.98 11.6631 11.8008 11.1597 12.42C10.4867 13.2462 9.53288 13.698 8.32554 13.7628C7.41183 13.8114 6.53095 13.599 5.84885 13.1616C5.04092 12.645 4.56856 11.8566 4.5175 10.9386C4.46825 10.0458 4.82754 9.225 5.52787 8.6274C6.1972 8.0568 7.13827 7.722 8.25077 7.659C9.06965 7.614 9.83746 7.65 10.5451 7.7652C10.4502 7.209 10.2606 6.7662 9.97606 6.4476C9.58577 6.0084 8.9821 5.7852 8.18329 5.7798C8.17599 5.7798 8.1687 5.7798 8.1614 5.7798C7.51943 5.7798 6.64767 5.9544 6.09324 6.7698L4.75824 5.886C5.50234 4.7952 6.70968 4.194 8.1614 4.194C8.17235 4.194 8.18329 4.194 8.19423 4.194C10.6217 4.2084 12.0679 5.6754 12.212 8.235C12.2941 8.2692 12.3762 8.3052 12.4564 8.3412C13.589 8.8668 14.417 9.6624 14.8528 10.6434C15.4583 12.0096 15.5149 14.2362 13.6765 16.0128C12.2704 17.37 10.5651 17.9838 8.14681 18H8.13587ZM8.90368 9.2322C8.71948 9.2322 8.53346 9.2376 8.34196 9.2484C6.94677 9.3258 6.07683 9.9576 6.12607 10.8558C6.17713 11.7972 7.22945 12.2346 8.24165 12.1806C9.17178 12.132 10.3828 11.7738 10.587 9.3978C10.0727 9.288 9.50918 9.2322 8.90368 9.2322Z" fill="#1B1B1B"/>
</svg>
